name analog
datacolumns 19
datarows 22
range 0.5370000000000001 0.5475000000000002
endheader
time	ground_force_vx	ground_force_vy	ground_force_vz	ground_force_px	ground_force_py	ground_force_pz	l_ground_force_vx	l_ground_force_vy	l_ground_force_vz	l_ground_force_px	l_ground_force_py	l_ground_force_pz	ground_torque_x	ground_torque_y	ground_torque_z	l_ground_torque_x	l_ground_torque_y	l_ground_torque_z
0.5370000000000001	-0.0	-0.0	-0.0	-5.084999084472656	30.640989303588867	-239.76870727539065	-15.827521324157717	-43.60162734985352	-316.826171875	-0.0	-0.0	-0.0	-0.0	-0.0	-0.0	76322.40625	40170.65625	-9325.736328125
0.5375000000000002	-0.0	-0.0	-0.0	-4.757490158081055	29.98769760131836	-238.6754150390625	-15.720381736755373	-43.28176498413086	-314.7154541015625	-0.0	-0.0	-0.0	-0.0	-0.0	-0.0	75819.4140625	39465.84765625	-9371.16796875
0.5380000000000001	-0.0	-0.0	-0.0	-4.172857761383057	29.473087310791016	-236.55123901367188	-15.440213203430176	-42.49678039550781	-314.8435363769531	-0.0	-0.0	-0.0	-0.0	-0.0	-0.0	75390.7421875	38829.25	-9301.900390625
0.5385000000000002	-0.0	-0.0	-0.0	-3.251814126968384	28.947280883789062	-236.5509033203125	-15.473138809204102	-41.511192321777344	-311.5169677734375	-0.0	-0.0	-0.0	-0.0	-0.0	-0.0	75438.0234375	38431.609375	-9206.52734375
0.5390000000000001	-0.0	-0.0	-0.0	-1.6865546703338623	27.95503616333008	-236.0840606689453	-15.492088317871094	-40.02845001220703	-311.665283203125	-0.0	-0.0	-0.0	-0.0	-0.0	-0.0	75356.03125	37295.296875	-9045.341796875
0.5395000000000002	-0.0	-0.0	-0.0	-1.090794324874878	26.970001220703125	-238.2681884765625	-14.801511764526367	-38.35041046142578	-311.24273681640625	-0.0	-0.0	-0.0	-0.0	-0.0	-0.0	75767.09375	36926.51953125	-8813.451171875
0.5400000000000001	-0.0	-0.0	-0.0	1.244293451309204	25.72268867492676	-240.43499755859372	-14.212678909301758	-36.69124221801758	-310.74493408203125	-0.0	-0.0	-0.0	-0.0	-0.0	-0.0	76005.140625	36327.84765625	-8467.341796875
0.5405000000000002	-0.0	-0.0	-0.0	2.230262756347656	24.88778305053711	-241.52407836914065	-13.414358139038086	-35.04476547241211	-312.2164306640625	-0.0	-0.0	-0.0	-0.0	-0.0	-0.0	76415.015625	35495.71484375	-8209.927734375
0.5410000000000001	-0.0	-0.0	-0.0	3.314082384109497	23.90743064880371	-248.58604431152344	-12.527332305908203	-33.17771911621094	-314.1612243652344	-0.0	-0.0	-0.0	-0.0	-0.0	-0.0	77053.5078125	35054.7109375	-7857.32373046875
0.5415000000000002	-0.0	-0.0	-0.0	5.435103893280029	23.578447341918945	-253.31146240234372	-11.297429084777832	-32.04884719848633	-315.98223876953125	-0.0	-0.0	-0.0	-0.0	-0.0	-0.0	77902.34375	34080.61328125	-7481.09375
0.5420000000000003	-0.0	-0.0	-0.0	6.072925567626953	23.53703117370605	-261.6801452636719	-10.000978469848633	-31.57325553894043	-320.17205810546875	-0.0	-0.0	-0.0	-0.0	-0.0	-0.0	78935.2421875	33758.83984375	-7049.41162109375
0.5425000000000002	-0.0	-0.0	-0.0	7.431487560272217	23.557416915893555	-269.3370056152344	-8.446866035461426	-30.785755157470703	-323.0413818359375	-0.0	-0.0	-0.0	-0.0	-0.0	-0.0	80354.5	33102.0546875	-6502.66455078125
0.5430000000000001	-0.0	-0.0	-0.0	8.900245666503906	24.166305541992188	-280.1777648925781	-6.861196994781494	-30.94292259216309	-330.06817626953125	-0.0	-0.0	-0.0	-0.0	-0.0	-0.0	81797.6171875	32364.525390625	-6169.875
0.5435000000000002	-0.0	-0.0	-0.0	9.79227352142334	24.080394744873047	-290.5619201660156	-5.006786346435547	-31.324092864990234	-334.83642578125	-0.0	-0.0	-0.0	-0.0	-0.0	-0.0	83465.8984375	32099.517578125	-5753.3056640625
0.5440000000000003	-0.0	-0.0	-0.0	11.424334526062012	25.5858097076416	-305.0858459472656	-3.291408061981201	-32.11920928955078	-341.47027587890625	-0.0	-0.0	-0.0	-0.0	-0.0	-0.0	85384.015625	31841.28515625	-5284.15625
0.5445000000000002	-0.0	-0.0	-0.0	12.830363273620604	26.92245864868164	-319.0450134277344	-1.9218474626541135	-33.1988525390625	-348.7251892089844	-0.0	-0.0	-0.0	-0.0	-0.0	-0.0	87730.1875	31427.291015625	-4980.22265625
0.5450000000000002	-0.0	-0.0	-0.0	13.80176067352295	28.882999420166016	-332.7979431152344	-0.4041101932525635	-34.78889083862305	-358.0743103027344	-0.0	-0.0	-0.0	-0.0	-0.0	-0.0	89548.34375	31274.783203125	-4831.17236328125
0.5455000000000002	-0.0	-0.0	-0.0	15.327484130859377	30.571727752685547	-350.5575866699219	0.6803581714630127	-36.01554107666016	-366.1821594238281	-0.0	-0.0	-0.0	-0.0	-0.0	-0.0	91639.15625	30981.14453125	-4438.65576171875
0.5460000000000003	-0.0	-0.0	-0.0	16.346786499023438	33.1181755065918	-364.7507019042969	2.1581578254699707	-37.49856185913086	-373.4358215332031	-0.0	-0.0	-0.0	-0.0	-0.0	-0.0	93787.640625	30625.234375	-4187.533203125
0.5465000000000002	-0.0	-0.0	-0.0	17.595815658569336	35.630836486816406	-379.9522705078125	3.8722739219665527	-38.64516830444336	-379.876953125	-0.0	-0.0	-0.0	-0.0	-0.0	-0.0	95593.6015625	30256.224609375	-3919.738037109375
0.5470000000000002	-0.0	-0.0	-0.0	18.3524112701416	37.43830490112305	-394.5867919921875	5.872135162353516	-39.92140197753906	-386.0040588378906	-0.0	-0.0	-0.0	-0.0	-0.0	-0.0	97135.703125	29857.896484375	-3335.0322265625
0.5475000000000002	-0.0	-0.0	-0.0	19.71552276611328	39.33121109008789	-406.7909851074219	9.182230949401855	-40.61970901489258	-390.00238037109375	-0.0	-0.0	-0.0	-0.0	-0.0	-0.0	98839.90625	29460.224609375	-2469.84619140625
